<?xml version="1.0" standalone="no"?>
<!DOCTYPE svg PUBLIC "-//W3C//DTD SVG 20010904//EN"
 "http://www.w3.org/TR/2001/REC-SVG-20010904/DTD/svg10.dtd">
<svg version="1.0" xmlns="http://www.w3.org/2000/svg"
 width="500.000000pt" height="500.000000pt" viewBox="0 0 500.000000 500.000000"
 preserveAspectRatio="xMidYMid meet">

<g transform="translate(0.000000,500.000000) scale(0.100000,-0.100000)"
fill="#000000" stroke="none">
<path d="M2360 4474 c-60 -26 -110 -86 -110 -132 0 -10 -11 -40 -24 -65 l-23
-47 26 7 c70 16 112 56 156 146 19 40 42 70 64 85 l34 22 -44 0 c-24 -1 -60
-8 -79 -16z"/>
<path d="M2637 4465 c-53 -18 -83 -49 -103 -104 -10 -25 -29 -59 -43 -75 l-26
-29 47 5 c60 7 108 42 153 113 23 35 48 59 75 72 37 19 38 21 18 27 -36 9 -80
6 -121 -9z"/>
<path d="M2137 4459 c-106 -25 -167 -95 -167 -192 0 -23 -7 -54 -14 -69 -17
-32 -16 -33 27 -14 53 22 104 90 118 155 9 42 20 65 49 93 21 21 35 38 31 37
-3 -1 -23 -5 -44 -10z"/>
<path d="M2900 4419 c-35 -14 -69 -48 -91 -90 -10 -20 -32 -48 -49 -63 l-32
-26 54 0 c64 0 108 24 167 92 27 30 57 52 84 61 l42 14 -40 12 c-48 13 -101
13 -135 0z"/>
<path d="M1830 4374 c-85 -37 -120 -95 -120 -199 0 -42 -5 -85 -11 -96 -9 -18
-7 -18 28 4 59 37 93 93 100 163 3 33 15 77 28 102 26 47 25 48 -25 26z"/>
<path d="M3145 4322 c-16 -10 -47 -40 -68 -65 -21 -26 -49 -50 -63 -53 -33 -8
-22 -21 25 -29 55 -9 113 11 171 61 32 27 65 46 88 49 58 10 59 11 23 29 -53
28 -139 32 -176 8z"/>
<path d="M1570 4259 c-98 -59 -113 -90 -104 -224 l7 -104 29 20 c48 34 70 91
69 176 -1 56 4 83 19 113 11 22 19 40 18 40 -2 0 -19 -10 -38 -21z"/>
<path d="M3372 4181 c-22 -16 -43 -35 -47 -41 -4 -7 -26 -20 -49 -30 l-41 -17
51 -16 c64 -19 113 -10 181 33 37 24 58 30 102 30 l56 0 -35 23 c-82 56 -157
61 -218 18z"/>
<path d="M1313 4095 c-81 -69 -104 -146 -66 -218 9 -18 17 -53 17 -79 1 -54
12 -50 53 19 27 46 30 77 18 184 -6 52 -4 72 9 97 9 18 15 32 13 32 -2 0 -22
-16 -44 -35z"/>
<path d="M3640 4042 c-8 -4 -37 -20 -63 -36 -27 -16 -62 -32 -79 -35 l-30 -6
44 -23 c54 -26 115 -28 166 -5 20 9 69 19 107 22 l70 6 -57 39 c-57 38 -124
55 -158 38z"/>
<path d="M1085 3899 c-37 -44 -65 -103 -65 -136 0 -16 12 -51 27 -78 14 -28
32 -67 38 -89 l11 -39 22 37 c35 59 38 107 12 176 -17 46 -21 73 -17 110 3 28
4 50 2 50 -2 0 -15 -14 -30 -31z"/>
<path d="M3812 3835 c-30 -14 -72 -25 -94 -25 -45 0 -43 -10 10 -44 55 -34
100 -39 172 -19 50 13 69 15 103 6 23 -7 43 -10 45 -9 9 10 -56 68 -100 90
-64 32 -70 32 -136 1z"/>
<path d="M892 3673 c-33 -46 -54 -112 -46 -148 3 -16 24 -54 46 -83 22 -29 44
-67 48 -85 l7 -32 19 40 c26 58 22 123 -12 181 -19 32 -31 69 -34 104 l-5 55
-23 -32z"/>
<path d="M4000 3624 c-25 -8 -65 -14 -89 -14 l-45 0 30 -31 c43 -46 82 -59
178 -59 47 0 97 -5 112 -10 15 -6 28 -9 30 -7 2 2 -10 22 -26 44 -55 74 -116
99 -190 77z"/>
<path d="M738 3425 c-25 -47 -39 -109 -32 -145 4 -20 29 -56 64 -94 31 -33 60
-70 64 -81 l8 -20 8 20 c23 55 -2 176 -40 200 -17 10 -41 64 -49 108 l-7 42
-16 -30z"/>
<path d="M4030 3370 c12 -21 61 -65 90 -80 13 -7 58 -16 98 -20 51 -5 83 -14
103 -29 34 -25 37 -15 10 38 -20 38 -81 99 -104 103 -7 1 -55 2 -108 2 -83 1
-96 -1 -89 -14z"/>
<path d="M1443 3289 c-184 -31 -343 -154 -430 -334 -92 -191 -96 -370 -12
-536 87 -173 275 -270 465 -241 42 7 80 10 84 7 5 -3 39 -47 75 -99 36 -51 78
-99 92 -105 35 -16 188 -27 196 -14 3 5 -39 71 -93 145 -55 75 -100 140 -100
146 0 6 33 44 73 84 155 155 228 411 173 602 -56 193 -181 312 -360 345 -67
12 -89 12 -163 0z m194 -172 c17 -9 51 -39 76 -67 57 -64 72 -119 71 -265 0
-120 -25 -225 -68 -294 -32 -50 -107 -117 -153 -137 -51 -21 -186 -30 -243
-14 -58 15 -143 98 -160 155 -18 59 -24 234 -11 312 28 162 123 284 249 320
60 17 198 11 239 -10z"/>
<path d="M2557 3290 c-189 -48 -297 -233 -238 -407 30 -88 28 -99 -20 -123
-100 -51 -188 -183 -197 -296 -8 -110 58 -218 162 -265 107 -47 221 -35 362
37 47 24 92 44 99 44 6 0 26 -18 44 -40 39 -48 81 -62 178 -58 l72 3 -85 109
c-46 60 -84 115 -84 122 0 7 16 39 35 71 36 61 79 168 94 232 11 50 0 61 -61
61 -54 0 -84 -21 -93 -67 -4 -16 -16 -57 -28 -93 -34 -100 -42 -96 -177 81
-151 196 -153 201 -148 306 3 83 4 85 40 119 33 29 45 34 89 34 67 0 84 -11
115 -72 l26 -51 56 7 c81 10 88 20 62 89 -12 31 -34 70 -50 86 -62 61 -170 91
-253 71z m-27 -737 c57 -75 105 -144 107 -154 7 -25 -86 -76 -153 -85 -123
-15 -187 23 -199 120 -11 84 9 156 56 210 63 71 70 68 189 -91z"/>
<path d="M3623 3278 c-5 -7 -123 -249 -262 -538 -140 -289 -257 -529 -262
-535 -19 -20 -6 -25 64 -25 106 0 119 11 183 155 l53 120 214 3 214 2 23 -117
c30 -151 40 -163 140 -163 51 0 72 4 76 14 7 17 -242 1065 -257 1083 -15 18
-173 18 -186 1z m87 -211 c0 -13 20 -121 44 -241 30 -149 40 -219 32 -221 -6
-3 -77 -6 -159 -7 -144 -3 -147 -3 -147 18 0 17 111 277 190 447 16 33 40 36
40 4z"/>
<path d="M620 3175 c-20 -58 -17 -125 6 -163 10 -18 40 -47 67 -63 26 -16 56
-43 66 -59 l18 -31 6 38 c10 61 -9 110 -66 170 -32 33 -58 73 -68 101 l-16 47
-13 -40z"/>
<path d="M4140 3138 c0 -49 95 -123 170 -133 31 -4 65 -18 90 -36 46 -34 50
-25 16 46 -40 86 -87 115 -182 115 -31 0 -64 5 -75 10 -14 8 -19 7 -19 -2z"/>
<path d="M547 2940 c-13 -50 -7 -116 16 -160 18 -37 33 -50 86 -76 35 -17 72
-42 82 -55 l19 -24 0 38 c0 68 -32 117 -126 192 -20 16 -44 47 -54 69 -16 38
-17 39 -23 16z"/>
<path d="M4220 2871 c19 -68 75 -124 142 -142 27 -7 58 -27 86 -54 l44 -44 -7
42 c-18 112 -69 168 -166 186 -34 6 -72 17 -85 25 -22 15 -22 15 -14 -13z"/>
<path d="M513 2619 c10 -105 61 -168 150 -184 21 -4 52 -19 69 -33 l31 -26 -7
39 c-13 67 -60 123 -129 152 -20 8 -56 36 -79 62 l-41 46 6 -56z"/>
<path d="M4250 2629 c0 -59 78 -179 116 -179 19 0 92 -67 99 -91 13 -40 27 -6
21 48 -11 92 -50 143 -130 169 -28 9 -63 28 -78 42 -19 17 -28 21 -28 11z"/>
<path d="M514 2370 c10 -83 43 -141 96 -167 24 -13 56 -23 71 -23 14 0 43 -11
63 -25 l36 -25 -6 28 c-17 67 -87 145 -145 157 -35 8 -75 39 -101 79 l-20 31
6 -55z"/>
<path d="M4250 2330 c0 -60 25 -104 91 -161 35 -31 64 -67 75 -92 16 -40 17
-41 25 -17 4 14 7 48 8 75 1 72 -30 120 -99 157 -30 15 -65 40 -77 54 l-23 25
0 -41z"/>
<path d="M555 2090 c10 -50 50 -115 86 -141 22 -15 53 -24 105 -29 41 -4 81
-14 90 -21 15 -12 16 -11 9 11 -4 14 -15 36 -24 49 -19 30 -89 81 -110 81 -38
0 -94 23 -128 53 l-36 31 8 -34z"/>
<path d="M4205 2076 c-11 -68 7 -117 65 -181 27 -30 52 -67 56 -82 12 -55 14
-59 24 -43 5 8 15 38 21 67 18 77 -5 131 -78 184 -30 23 -61 55 -68 72 l-13
32 -7 -49z"/>
<path d="M4122 1821 c-21 -68 -15 -102 30 -177 29 -46 44 -85 48 -119 l6 -50
27 55 c45 92 35 162 -33 225 -18 17 -40 47 -50 68 l-17 37 -11 -39z"/>
<path d="M625 1829 c11 -39 58 -102 94 -126 29 -19 47 -23 117 -23 45 0 90 -3
100 -7 17 -6 16 -3 -3 28 -33 53 -96 87 -182 98 -49 6 -84 17 -104 31 l-29 22
7 -23z"/>
<path d="M2072 1638 c-18 -18 -16 -202 3 -238 24 -47 83 -52 106 -8 16 29 21
228 7 245 -8 10 -14 10 -24 2 -10 -8 -14 -41 -14 -125 0 -107 -1 -114 -20
-114 -19 0 -20 7 -20 114 0 82 -4 117 -13 125 -10 8 -17 7 -25 -1z"/>
<path d="M2321 1636 c-8 -9 -11 -55 -9 -137 3 -102 6 -124 18 -124 12 0 14 15
12 88 -3 68 0 87 10 87 8 0 20 -27 32 -72 23 -92 42 -124 62 -107 22 18 16
264 -6 264 -12 0 -14 -11 -12 -50 3 -58 -5 -98 -17 -90 -5 3 -14 29 -21 57
-13 55 -34 98 -49 98 -5 0 -14 -6 -20 -14z"/>
<path d="M2621 1636 c-14 -17 -54 -243 -46 -256 10 -16 23 -11 30 10 4 14 15
20 35 20 20 0 31 -6 35 -20 9 -29 35 -25 35 5 0 45 -33 229 -43 243 -13 16
-32 15 -46 -2z m32 -63 c3 -5 8 -34 12 -65 7 -58 7 -58 -19 -58 -29 0 -30 6
-20 84 6 43 16 57 27 39z"/>
<path d="M2837 1634 c-4 -4 -7 -62 -7 -129 0 -139 5 -148 67 -143 49 4 53 32
6 36 l-32 3 -3 116 c-3 108 -11 137 -31 117z"/>
<path d="M3997 1574 c-25 -52 -22 -116 10 -177 19 -36 27 -68 27 -104 0 -58 6
-58 40 -4 53 84 52 146 -5 217 -17 21 -33 51 -36 66 -8 41 -18 42 -36 2z"/>
<path d="M756 1549 c23 -45 71 -95 104 -109 20 -8 46 -10 78 -5 26 4 73 8 104
9 l57 1 -37 38 c-45 46 -105 66 -187 60 -46 -3 -69 0 -97 15 l-37 19 15 -28z"/>
<path d="M3837 1354 c-34 -50 -37 -105 -11 -186 14 -47 16 -66 7 -104 l-11
-46 34 33 c41 40 74 104 74 145 0 16 -12 52 -27 79 -15 28 -29 66 -33 85 l-6
35 -27 -41z"/>
<path d="M910 1311 c0 -13 75 -79 107 -95 42 -21 78 -20 132 4 24 11 61 20 84
20 39 0 40 0 22 20 -25 28 -96 60 -133 60 -17 0 -52 -5 -76 -12 -32 -9 -57 -9
-90 -1 -25 6 -46 7 -46 4z"/>
<path d="M3652 1167 c-44 -45 -53 -86 -46 -188 5 -59 3 -92 -6 -108 -22 -42
-1 -34 54 21 70 70 77 102 46 198 -12 38 -20 79 -17 90 3 11 4 20 3 20 -1 0
-17 -15 -34 -33z"/>
<path d="M1255 1109 c-35 -14 -66 -20 -102 -17 l-52 3 27 -29 c34 -36 97 -65
142 -66 22 0 50 10 75 27 22 15 60 32 84 38 l44 12 -38 23 c-52 32 -117 35
-180 9z"/>
<path d="M3436 1010 c-49 -44 -70 -93 -68 -166 2 -46 -4 -72 -22 -107 l-23
-47 50 27 c27 15 61 43 76 62 25 33 26 41 26 148 0 62 -1 113 -2 113 -1 0 -18
-14 -37 -30z"/>
<path d="M1490 938 c-34 -19 -75 -33 -110 -37 l-55 -6 48 -29 c50 -30 110 -43
151 -32 14 3 45 24 70 45 25 22 60 43 78 47 l33 7 -40 18 c-60 28 -111 24
-175 -13z"/>
<path d="M3189 877 c-43 -29 -75 -86 -83 -150 -8 -56 -18 -81 -50 -116 l-21
-24 30 7 c97 23 171 112 159 192 -3 22 -1 57 4 77 12 43 7 45 -39 14z"/>
<path d="M1785 836 c-16 -7 -43 -24 -60 -38 -46 -38 -70 -48 -117 -48 l-43 -1
45 -24 c99 -52 178 -40 240 37 18 22 48 47 67 56 34 16 34 17 12 23 -40 12
-112 9 -144 -5z"/>
<path d="M2943 796 c-59 -28 -95 -75 -113 -148 -8 -30 -25 -61 -48 -84 l-36
-37 44 7 c99 16 170 88 170 173 0 22 9 55 19 76 10 20 18 37 17 37 0 0 -24
-11 -53 -24z"/>
<path d="M2074 761 c-22 -10 -63 -41 -90 -69 -40 -40 -60 -53 -93 -58 -51 -8
-40 -19 36 -34 73 -16 122 -1 164 51 19 22 50 58 70 79 27 29 32 40 22 45 -27
10 -68 5 -109 -14z"/>
<path d="M2677 750 c-49 -15 -98 -61 -122 -114 -22 -49 -57 -90 -100 -115 -16
-10 -8 -11 44 -7 79 7 142 41 165 90 9 19 16 40 16 48 0 8 11 36 24 61 24 48
22 51 -27 37z"/>
<path d="M2393 740 c-43 -10 -98 -53 -127 -98 -29 -46 -52 -67 -91 -83 l-30
-12 35 -8 c48 -12 114 -1 153 25 18 12 44 45 60 76 15 30 39 67 54 82 l27 28
-25 -1 c-13 -1 -39 -5 -56 -9z"/>
</g>
</svg>
